<svg width="40" height="40" viewBox="0 0 463 453" fill="none" xmlns="http://www.w3.org/2000/svg">
<path fill-rule="evenodd" clip-rule="evenodd" d="M312 125C312 169.735 275.735 206 231 206C186.265 206 150 169.735 150 125C150 80.2649 186.265 44 231 44C275.735 44 312 80.2649 312 125ZM307.984 223.488C337.214 200.608 356 164.998 356 125C356 55.9644 300.036 0 231 0C161.964 0 106 55.9644 106 125C106 165.106 124.888 200.801 154.254 223.674C64.3816 245.775 0 305.354 0 375.383C0 454.308 81.7782 453.409 189.66 452.223H189.661C203.232 452.073 217.215 451.92 231.5 451.92C245.785 451.92 259.769 452.073 273.339 452.223H273.34C381.222 453.409 463 454.308 463 375.383C463 305.156 398.254 245.439 307.984 223.488ZM419 375.383C419 388.331 415.622 391.841 414.204 393.213C411.331 395.994 404.089 400.467 386.915 403.758C370.053 406.989 348.4 408.228 321.239 408.457C305.835 408.587 290.755 408.416 274.669 408.233L274.66 408.233C261.232 408.08 247.103 407.92 231.5 407.92C215.897 407.92 201.768 408.08 188.34 408.233L188.331 408.233C172.245 408.416 157.165 408.587 141.761 408.457C114.6 408.228 92.9468 406.989 76.0853 403.758C58.9109 400.467 51.6688 395.994 48.7961 393.213C47.3784 391.841 44 388.331 44 375.383C44 349.4 59.1043 321.25 92.9147 297.753C126.565 274.368 175.426 258.5 231.5 258.5C287.574 258.5 336.435 274.368 370.085 297.753C403.896 321.25 419 349.4 419 375.383Z" fill="black"/>
</svg>
