<svg width="100" height="110" viewBox="0 0 100 110" fill="none" xmlns="http://www.w3.org/2000/svg">
<path fill-rule="evenodd" clip-rule="evenodd" d="M50 0.5C75.7396 0.5 96.9366 16.9086 99.6959 41.5H100V47V48.5H54.5V95.8313C54.5 99.1819 56.7122 101.776 58.8198 102.365C59.7548 102.626 60.7732 102.543 61.8609 101.818C63.0212 101.046 64.4799 99.3823 65.7265 96.0877L72.2735 98.565C70.6916 102.746 68.486 105.817 65.7409 107.645C62.9233 109.521 59.7952 109.905 56.9374 109.107C51.4592 107.578 47.5 101.949 47.5 95.8313V48.5H1V47H0C0 19.3858 22.3858 0.5 50 0.5ZM50 7.5C72.4466 7.5 89.9397 21.3433 92.638 41.5H7.36196C10.0603 21.3433 27.5534 7.5 50 7.5Z" fill="black"/>
</svg>
