<svg width="100" height="87" viewBox="0 0 100 87" fill="none" xmlns="http://www.w3.org/2000/svg">
<path fill-rule="evenodd" clip-rule="evenodd" d="M53.5 48V0H46.5V48H53.5ZM97.1935 20.484L90.5864 22.7962L77.4728 27.3855L70.8657 29.6977L70.8675 29.7027C72.0435 33.0658 72.3893 36.6634 71.8754 40.189C71.3612 43.7163 70.0016 47.067 67.9126 49.9553C65.8236 52.8437 63.0671 55.184 59.8782 56.7768C56.6892 58.3696 53.1624 59.1677 49.5984 59.1029C46.0343 59.0382 42.5388 58.1125 39.4099 56.4049C36.2809 54.6973 33.6112 52.2583 31.6286 49.296C29.6459 46.3337 28.4089 42.9358 28.0232 39.3921C27.6378 35.8512 28.1137 32.2696 29.4103 28.9523L29.4133 28.9445L22.8946 26.3938L9.95646 21.3311L3.43774 18.7803L3.43577 18.7854C2.58069 20.9713 1.88319 23.208 1.34555 25.4785C0.0369272 31.0047 -0.324635 36.7307 0.29359 42.4104C1.166 50.4254 3.96366 58.1106 8.44804 64.8107C12.9324 71.5108 18.9705 77.0271 26.0475 80.8894C33.1246 84.7516 41.0306 86.8453 49.0916 86.9917C57.1526 87.1382 65.1295 85.3332 72.3421 81.7306C79.5548 78.128 85.7893 72.8347 90.5142 66.3019C95.239 59.7692 98.314 52.1907 99.477 44.2127C100.301 38.5592 100.148 32.8239 99.0409 27.2537C98.5858 24.9635 97.9694 22.7012 97.1935 20.484ZM78.8022 41.1987C79.1376 38.8977 79.1949 36.5733 78.9787 34.2748L92.3572 29.5928C93.1412 34.0759 93.2111 38.67 92.5502 43.2029C91.55 50.064 88.9055 56.5815 84.8422 62.1997C80.7788 67.8178 75.4171 72.3701 69.2142 75.4683C63.0113 78.5666 56.1512 80.1189 49.2188 79.9929C42.2863 79.8669 35.4871 78.0664 29.4009 74.7449C23.3146 71.4233 18.1219 66.6793 14.2653 60.9172C10.4087 55.1551 8.00276 48.5459 7.25249 41.653C6.7568 37.099 6.99353 32.5105 7.93986 28.0588L21.1394 33.2238C20.8399 35.5129 20.8127 37.8378 21.0643 40.1496C21.5722 44.8154 23.2008 49.2891 25.8113 53.1895C28.4218 57.0898 31.9368 60.3011 36.0565 62.5494C40.1763 64.7978 44.7786 66.0165 49.4712 66.1018C54.1637 66.187 58.8073 65.1363 63.0061 63.0391C67.2048 60.9419 70.8341 57.8605 73.5846 54.0576C76.3351 50.2547 78.1251 45.843 78.8022 41.1987Z" fill="black"/>
</svg>
