<svg width="172" height="115" viewBox="0 0 172 115" fill="none" xmlns="http://www.w3.org/2000/svg">
<path fill-rule="evenodd" clip-rule="evenodd" d="M58 108V24H77.267C78.8805 24.0721 80.6448 24.0494 82.5101 24.0254C83.4817 24.0129 84.4807 24 85.5 24C86.5193 24 87.5183 24.0129 88.4899 24.0254C90.3552 24.0494 92.1195 24.0721 93.733 24H113V108H58ZM51 108V24H20C12.8203 24 7 29.8203 7 37V95C7 102.18 12.8203 108 20 108H51ZM51 17H20C8.9543 17 0 25.9543 0 37V95C0 106.046 8.9543 115 20 115H51H58H113H120H152C163.046 115 172 106.046 172 95V37C172 25.9543 163.046 17 152 17H120H113H102.978C102.993 16.7445 103 16.4799 103 16.2059C103 7.25561 95.165 0 85.5 0C75.835 0 68 7.25561 68 16.2059C68 16.4799 68.0073 16.7445 68.0219 17H58H51ZM93.5603 17C94.6656 16.9454 95.4377 16.8467 95.9822 16.7173C95.9928 16.5795 96 16.4104 96 16.2059C96 11.6183 91.8151 7 85.5 7C79.1849 7 75 11.6183 75 16.2059C75 16.4104 75.0072 16.5795 75.0178 16.7173C75.5623 16.8467 76.3344 16.9454 77.4397 17H85.5H93.5603ZM120 24V108H152C159.18 108 165 102.18 165 95V37C165 29.8203 159.18 24 152 24H120Z" fill="black"/>
</svg>
