<svg width="171" height="139" viewBox="0 0 171 139" fill="none" xmlns="http://www.w3.org/2000/svg">
<mask id="path-1-inside-1_8_66" fill="white">
<path fill-rule="evenodd" clip-rule="evenodd" d="M7.99479 38.1596L0 42.0759L8.01897 45.9425L58.0122 70.0482L34.7104 81.3126L8.01897 68.4425L7.2396 68.0667L0.0758972 71.5759L8.09486 75.4425L27.4989 84.7987L15.9688 90.3726L23.2252 93.9014L34.7863 88.3126L84.949 112.5L135.242 88.1874L146.696 93.7099L153.859 90.2007L142.454 84.7013L161.998 75.2534L170.025 71.3731L162.769 67.8442L161.922 68.2534L135.167 81.1874L111.865 69.9518L131.539 60.441L146.724 67.8255L153.904 64.3543L138.72 56.9698L161.922 45.7534L169.949 41.8731L161.931 37.974L84.8731 0.5L7.99479 38.1596ZM127.955 84.6736L104.653 73.438L84.8731 83L65.2996 73.562L41.9979 84.8264L84.8731 105.5L127.955 84.6736ZM84.8692 75.2269L73.3477 69.6714L85.0798 64L96.6013 69.5554L84.8692 75.2269ZM85.0039 57L103.813 66.0693L153.904 41.8543L84.8843 8.28928L16.0138 42.0262L66.0603 66.1576L85.0039 57ZM169.949 97.151L161.954 101.067L85.0759 138.727L8.01778 101.253L0 97.3538L7.1805 93.8826L7.94188 94.2529L85 131.727L161.878 94.0673L162.709 93.6602L169.949 97.151ZM16.0138 64.5262L31.1285 57.122L38.3681 60.6128L23.2534 68.0169L16.0138 64.5262Z"/>
</mask>
<path fill-rule="evenodd" clip-rule="evenodd" d="M7.99479 38.1596L0 42.0759L8.01897 45.9425L58.0122 70.0482L34.7104 81.3126L8.01897 68.4425L7.2396 68.0667L0.0758972 71.5759L8.09486 75.4425L27.4989 84.7987L15.9688 90.3726L23.2252 93.9014L34.7863 88.3126L84.949 112.5L135.242 88.1874L146.696 93.7099L153.859 90.2007L142.454 84.7013L161.998 75.2534L170.025 71.3731L162.769 67.8442L161.922 68.2534L135.167 81.1874L111.865 69.9518L131.539 60.441L146.724 67.8255L153.904 64.3543L138.72 56.9698L161.922 45.7534L169.949 41.8731L161.931 37.974L84.8731 0.5L7.99479 38.1596ZM127.955 84.6736L104.653 73.438L84.8731 83L65.2996 73.562L41.9979 84.8264L84.8731 105.5L127.955 84.6736ZM84.8692 75.2269L73.3477 69.6714L85.0798 64L96.6013 69.5554L84.8692 75.2269ZM85.0039 57L103.813 66.0693L153.904 41.8543L84.8843 8.28928L16.0138 42.0262L66.0603 66.1576L85.0039 57ZM169.949 97.151L161.954 101.067L85.0759 138.727L8.01778 101.253L0 97.3538L7.1805 93.8826L7.94188 94.2529L85 131.727L161.878 94.0673L162.709 93.6602L169.949 97.151ZM16.0138 64.5262L31.1285 57.122L38.3681 60.6128L23.2534 68.0169L16.0138 64.5262Z" fill="black"/>
<path d="M0 42.0759L-0.439913 41.1779L-2.28768 42.083L-0.434326 42.9767L0 42.0759ZM7.99479 38.1596L8.43471 39.0576L8.43471 39.0576L7.99479 38.1596ZM8.01897 45.9425L8.45329 45.0417L8.45329 45.0417L8.01897 45.9425ZM58.0122 70.0482L58.4474 70.9485L60.3122 70.047L58.4465 69.1474L58.0122 70.0482ZM34.7104 81.3126L34.2761 82.2133L34.711 82.423L35.1457 82.2129L34.7104 81.3126ZM8.01897 68.4425L8.45329 67.5417L8.45329 67.5417L8.01897 68.4425ZM7.2396 68.0667L7.67393 67.1659L7.23615 66.9548L6.79969 67.1686L7.2396 68.0667ZM0.0758972 71.5759L-0.364016 70.6778L-2.21178 71.583L-0.358429 72.4766L0.0758972 71.5759ZM8.09486 75.4425L8.52919 74.5417L8.09486 75.4425ZM27.4989 84.7987L27.9342 85.699L29.799 84.7976L27.9333 83.898L27.4989 84.7987ZM15.9688 90.3726L15.5335 89.4722L13.6767 90.3699L15.5314 91.2719L15.9688 90.3726ZM23.2252 93.9014L22.7878 94.8007L23.2239 95.0128L23.6604 94.8017L23.2252 93.9014ZM34.7863 88.3126L35.2207 87.4118L34.7858 87.2021L34.3511 87.4122L34.7863 88.3126ZM84.949 112.5L84.5147 113.401L84.9496 113.61L85.3842 113.4L84.949 112.5ZM135.242 88.1874L135.677 87.2867L135.242 87.077L134.807 87.2871L135.242 88.1874ZM146.696 93.7099L146.261 94.6107L146.699 94.8218L147.136 94.608L146.696 93.7099ZM153.859 90.2007L154.299 91.0988L156.147 90.1936L154.294 89.3L153.859 90.2007ZM142.454 84.7013L142.019 83.801L140.154 84.7024L142.02 85.602L142.454 84.7013ZM161.998 75.2534L162.433 76.1537L162.433 76.1537L161.998 75.2534ZM170.025 71.3731L170.46 72.2734L172.317 71.3758L170.462 70.4738L170.025 71.3731ZM162.769 67.8442L163.206 66.9449L162.77 66.7329L162.333 66.9439L162.769 67.8442ZM161.922 68.2534L162.357 69.1537L161.922 68.2534ZM135.167 81.1874L134.732 82.0882L135.167 82.2979L135.602 82.0877L135.167 81.1874ZM111.865 69.9518L111.43 69.0515L109.565 69.953L111.431 70.8526L111.865 69.9518ZM131.539 60.441L131.976 59.5417L131.54 59.3296L131.104 59.5407L131.539 60.441ZM146.724 67.8255L146.287 68.7248L146.723 68.9368L147.159 68.7258L146.724 67.8255ZM153.904 64.3543L154.34 65.2546L156.196 64.357L154.342 63.455L153.904 64.3543ZM138.72 56.9698L138.284 56.0695L136.428 56.9671L138.282 57.8691L138.72 56.9698ZM161.922 45.7534L162.357 46.6537L162.357 46.6537L161.922 45.7534ZM169.949 41.8731L170.384 42.7734L172.241 41.8758L170.386 40.9738L169.949 41.8731ZM161.931 37.974L161.494 38.8733L161.494 38.8733L161.931 37.974ZM84.8731 0.5L85.3104 -0.399298L84.8715 -0.612754L84.4332 -0.39804L84.8731 0.5ZM127.955 84.6736L128.39 85.5739L130.255 84.6724L128.389 83.7728L127.955 84.6736ZM104.653 73.438L105.088 72.5372L104.653 72.3275L104.218 72.5376L104.653 73.438ZM84.8731 83L84.4388 83.9008L84.8737 84.1104L85.3083 83.9003L84.8731 83ZM65.2996 73.562L65.7339 72.6613L65.299 72.4516L64.8643 72.6617L65.2996 73.562ZM41.9979 84.8264L41.5626 83.9261L39.6978 84.8276L41.5635 85.7272L41.9979 84.8264ZM84.8731 105.5L84.4388 106.401L84.8737 106.61L85.3083 106.4L84.8731 105.5ZM73.3477 69.6714L72.9125 68.7711L71.0477 69.6726L72.9134 70.5722L73.3477 69.6714ZM84.8692 75.2269L84.4349 76.1276L84.8698 76.3373L85.3044 76.1272L84.8692 75.2269ZM85.0798 64L85.5141 63.0992L85.0792 62.8896L84.6446 63.0997L85.0798 64ZM96.6013 69.5554L97.0365 70.4557L98.9013 69.5543L97.0356 68.6547L96.6013 69.5554ZM103.813 66.0693L103.378 66.97L103.813 67.1797L104.248 66.9696L103.813 66.0693ZM85.0039 57L85.4382 56.0992L85.0033 55.8896L84.5687 56.0997L85.0039 57ZM153.904 41.8543L154.34 42.7546L156.196 41.857L154.342 40.955L153.904 41.8543ZM84.8843 8.28928L85.3216 7.38999L84.8827 7.17653L84.4443 7.39124L84.8843 8.28928ZM16.0138 42.0262L15.5738 41.1281L13.7261 42.0333L15.5794 42.9269L16.0138 42.0262ZM66.0603 66.1576L65.626 67.0584L66.0609 67.268L66.4955 67.0579L66.0603 66.1576ZM161.954 101.067L161.514 100.169L161.514 100.169L161.954 101.067ZM169.949 97.151L170.389 98.049L172.237 97.1439L170.383 96.2502L169.949 97.151ZM85.0759 138.727L84.6386 139.626L85.0775 139.84L85.5158 139.625L85.0759 138.727ZM8.01778 101.253L7.58044 102.152L7.58044 102.152L8.01778 101.253ZM0 97.3538L-0.435228 96.4535L-2.29209 97.3511L-0.437336 98.2531L0 97.3538ZM7.1805 93.8826L7.61784 92.9833L7.1818 92.7713L6.74527 92.9823L7.1805 93.8826ZM7.94188 94.2529L7.50454 95.1522L7.50454 95.1522L7.94188 94.2529ZM85 131.727L84.5627 132.626L85.0016 132.84L85.4399 132.625L85 131.727ZM161.878 94.0673L161.438 93.1692L161.438 93.1693L161.878 94.0673ZM162.709 93.6602L163.144 92.7594L162.706 92.5483L162.269 92.7621L162.709 93.6602ZM31.1285 57.122L31.5629 56.2213L31.1251 56.0102L30.6886 56.224L31.1285 57.122ZM16.0138 64.5262L15.5738 63.6281L13.7261 64.5333L15.5794 65.4269L16.0138 64.5262ZM38.3681 60.6128L38.808 61.5109L40.6558 60.6057L38.8025 59.7121L38.3681 60.6128ZM23.2534 68.0169L22.819 68.9177L23.2568 69.1288L23.6933 68.915L23.2534 68.0169ZM0.439913 42.9739L8.43471 39.0576L7.55488 37.2615L-0.439913 41.1779L0.439913 42.9739ZM8.45329 45.0417L0.434326 41.1751L-0.434326 42.9767L7.58464 46.8432L8.45329 45.0417ZM58.4465 69.1474L8.45329 45.0417L7.58464 46.8432L57.5778 70.949L58.4465 69.1474ZM35.1457 82.2129L58.4474 70.9485L57.5769 69.1479L34.2752 80.4122L35.1457 82.2129ZM35.1448 80.4118L8.45329 67.5417L7.58464 69.3432L34.2761 82.2133L35.1448 80.4118ZM8.45329 67.5417L7.67393 67.1659L6.80528 68.9674L7.58464 69.3432L8.45329 67.5417ZM6.79969 67.1686L-0.364016 70.6778L0.515811 72.4739L7.67952 68.9647L6.79969 67.1686ZM-0.358429 72.4766L7.66054 76.3432L8.52919 74.5417L0.510223 70.6751L-0.358429 72.4766ZM7.66054 76.3432L27.0646 85.6995L27.9333 83.898L8.52919 74.5417L7.66054 76.3432ZM16.404 91.2729L27.9342 85.699L27.0637 83.8984L15.5335 89.4722L16.404 91.2729ZM23.6625 93.0021L16.4061 89.4733L15.5314 91.2719L22.7878 94.8007L23.6625 93.0021ZM34.3511 87.4122L22.7899 93.0011L23.6604 94.8017L35.2216 89.2129L34.3511 87.4122ZM34.352 89.2133L84.5147 113.401L85.3833 111.599L35.2207 87.4118L34.352 89.2133ZM85.3842 113.4L135.678 89.0877L134.807 87.2871L84.5138 111.6L85.3842 113.4ZM147.13 92.8092L135.677 87.2867L134.808 89.0882L146.261 94.6107L147.13 92.8092ZM153.419 89.3027L146.256 92.8119L147.136 94.608L154.299 91.0988L153.419 89.3027ZM142.02 85.602L153.425 91.1015L154.294 89.3L142.888 83.8005L142.02 85.602ZM142.889 85.6016L162.433 76.1537L161.563 74.3531L142.019 83.801L142.889 85.6016ZM162.433 76.1537L170.46 72.2734L169.59 70.4728L161.563 74.3531L162.433 76.1537ZM170.462 70.4738L163.206 66.9449L162.331 68.7435L169.588 72.2724L170.462 70.4738ZM162.333 66.9439L161.487 67.3531L162.357 69.1537L163.204 68.7446L162.333 66.9439ZM161.487 67.3531L134.731 80.2871L135.602 82.0877L162.357 69.1537L161.487 67.3531ZM111.431 70.8526L134.732 82.0882L135.601 80.2867L112.299 69.051L111.431 70.8526ZM131.104 59.5407L111.43 69.0515L112.3 70.8521L131.974 61.3413L131.104 59.5407ZM131.102 61.3403L146.287 68.7248L147.161 66.9262L131.976 59.5417L131.102 61.3403ZM147.159 68.7258L154.34 65.2546L153.469 63.454L146.289 66.9251L147.159 68.7258ZM154.342 63.455L139.157 56.0705L138.282 57.8691L153.467 65.2536L154.342 63.455ZM161.487 44.8531L138.284 56.0695L139.155 57.8702L162.357 46.6537L161.487 44.8531ZM169.514 40.9728L161.487 44.8531L162.357 46.6537L170.384 42.7734L169.514 40.9728ZM161.494 38.8733L169.512 42.7724L170.386 40.9738L162.369 37.0747L161.494 38.8733ZM84.4358 1.3993L161.494 38.8733L162.369 37.0747L85.3104 -0.399298L84.4358 1.3993ZM8.43471 39.0576L85.313 1.39804L84.4332 -0.39804L7.55488 37.2615L8.43471 39.0576ZM128.389 83.7728L105.088 72.5372L104.219 74.3387L127.521 85.5743L128.389 83.7728ZM104.218 72.5376L84.4379 82.0997L85.3083 83.9003L105.089 74.3383L104.218 72.5376ZM85.3074 82.0992L65.7339 72.6613L64.8652 74.4628L84.4388 83.9008L85.3074 82.0992ZM64.8643 72.6617L41.5626 83.9261L42.4331 85.7267L65.7348 74.4624L64.8643 72.6617ZM85.3074 104.599L42.4322 83.9257L41.5635 85.7272L84.4388 106.401L85.3074 104.599ZM127.52 83.7733L84.4379 104.6L85.3083 106.4L128.39 85.5739L127.52 83.7733ZM72.9134 70.5722L84.4349 76.1276L85.3035 74.3261L73.7821 68.7707L72.9134 70.5722ZM84.6446 63.0997L72.9125 68.7711L73.783 70.5718L85.515 64.9003L84.6446 63.0997ZM97.0356 68.6547L85.5141 63.0992L84.6455 64.9008L96.1669 70.4562L97.0356 68.6547ZM85.3044 76.1272L97.0365 70.4557L96.166 68.6551L84.434 74.3265L85.3044 76.1272ZM104.247 65.1685L85.4382 56.0992L84.5696 57.9008L103.378 66.97L104.247 65.1685ZM153.469 40.954L103.378 65.1689L104.248 66.9696L154.34 42.7546L153.469 40.954ZM84.4469 9.18858L153.467 42.7536L154.342 40.955L85.3216 7.38999L84.4469 9.18858ZM16.4537 42.9242L85.3242 9.18732L84.4443 7.39124L15.5738 41.1281L16.4537 42.9242ZM66.4946 65.2568L16.4481 41.1254L15.5794 42.9269L65.626 67.0584L66.4946 65.2568ZM84.5687 56.0997L65.6251 65.2573L66.4955 67.0579L85.4391 57.9003L84.5687 56.0997ZM162.394 101.965L170.389 98.049L169.509 96.2529L161.514 100.169L162.394 101.965ZM85.5158 139.625L162.394 101.965L161.514 100.169L84.636 137.829L85.5158 139.625ZM7.58044 102.152L84.6386 139.626L85.5132 137.828L8.45511 100.354L7.58044 102.152ZM-0.437336 98.2531L7.58044 102.152L8.45511 100.354L0.437336 96.4545L-0.437336 98.2531ZM6.74527 92.9823L-0.435228 96.4535L0.435228 98.2541L7.61572 94.7829L6.74527 92.9823ZM8.37922 93.3536L7.61784 92.9833L6.74316 94.7819L7.50454 95.1522L8.37922 93.3536ZM85.4374 130.828L8.37922 93.3536L7.50454 95.1522L84.5627 132.626L85.4374 130.828ZM161.438 93.1693L84.5601 130.829L85.4399 132.625L162.318 94.9653L161.438 93.1693ZM162.269 92.7621L161.438 93.1692L162.318 94.9653L163.149 94.5582L162.269 92.7621ZM170.383 96.2502L163.144 92.7594L162.275 94.5609L169.515 98.0517L170.383 96.2502ZM30.6886 56.224L15.5738 63.6281L16.4537 65.4242L31.5684 58.0201L30.6886 56.224ZM38.8025 59.7121L31.5629 56.2213L30.6942 58.0228L37.9338 61.5136L38.8025 59.7121ZM23.6933 68.915L38.808 61.5109L37.9282 59.7148L22.8134 67.1189L23.6933 68.915ZM15.5794 65.4269L22.819 68.9177L23.6877 67.1162L16.4481 63.6254L15.5794 65.4269Z" fill="black" mask="url(#path-1-inside-1_8_66)"/>
</svg>
